<svg xmlns="http://www.w3.org/2000/svg" viewBox="0 0 1200 820" role="img" aria-labelledby="title desc">
<title id="title">片側交互通行の交通規制図</title><desc id="desc">中央の施工箇所を避け、交通誘導員の指示で車両が交互に通行するイメージ図です。</desc>
<defs><pattern id="stripe" width="32" height="32" patternUnits="userSpaceOnUse" patternTransform="rotate(45)"><rect width="16" height="32" fill="#f27b24"/><rect x="16" width="16" height="32" fill="#fff"/></pattern><linearGradient id="blue" x1="0" x2="1"><stop stop-color="#083b80"/><stop offset="1" stop-color="#0b62b4"/></linearGradient></defs>
<rect width="1200" height="820" fill="#fff"/><rect x="2" y="2" width="1196" height="816" fill="none" stroke="#07336f" stroke-width="4"/>
<text x="45" y="90" fill="#07336f" font-family="sans-serif" font-size="58" font-weight="800">交通規制図（例）</text><rect x="45" y="115" width="590" height="70" rx="10" fill="url(#blue)"/><text x="340" y="164" fill="#fff" font-family="sans-serif" font-size="40" font-weight="800" text-anchor="middle">片側交互通行</text>
<rect x="760" y="35" width="390" height="150" rx="12" fill="#fff" stroke="#0c58a5" stroke-width="3"/><g fill="#07336f" font-family="sans-serif" font-size="23" font-weight="700"><circle cx="795" cy="77" r="9"/><text x="820" y="86">規制時間 8:30〜17:00</text><circle cx="795" cy="121" r="9"/><text x="820" y="130">雨天時は変更の場合あり</text><circle cx="795" cy="164" r="9"/><text x="820" y="173">本図はイメージです</text></g>
<rect x="0" y="300" width="1200" height="285" fill="#aeb6bd"/><rect x="0" y="315" width="1200" height="8" fill="#fff"/><rect x="0" y="562" width="1200" height="8" fill="#fff"/><path d="M15 445H220Q280 445 340 390H445" fill="none" stroke="#fff" stroke-width="10"/><path d="M1185 445H980Q920 445 860 390H755" fill="none" stroke="#fff" stroke-width="10"/>
<rect x="405" y="350" width="390" height="145" fill="url(#stripe)" stroke="#f27b24" stroke-width="4"/><text x="600" y="435" fill="#111" font-family="sans-serif" font-size="44" font-weight="900" text-anchor="middle">施工箇所</text>
<g fill="#0c58a5"><path d="M275 420h105v-24l48 38-48 38v-24H275z"/><path d="M925 420H820v-24l-48 38 48 38v-24h105z"/></g>
<g><g transform="translate(245 265)"><circle r="18" fill="#f5c29d"/><path d="M-20-2q20-26 40 0" fill="#fff" stroke="#07336f" stroke-width="4"/><rect x="-18" y="18" width="36" height="75" fill="#0759a5"/><path d="M-16 25L0 58l16-33" fill="none" stroke="#f8d330" stroke-width="7"/><path d="M-15 35L-55 55M15 35L55 30" stroke="#07336f" stroke-width="8"/><path d="M-10 92l-8 55M10 92l8 55" stroke="#17293d" stroke-width="10"/><path d="M-55 55v-45" stroke="#d93422" stroke-width="5"/></g><g transform="translate(955 265)"><circle r="18" fill="#f5c29d"/><path d="M-20-2q20-26 40 0" fill="#fff" stroke="#07336f" stroke-width="4"/><rect x="-18" y="18" width="36" height="75" fill="#0759a5"/><path d="M-16 25L0 58l16-33" fill="none" stroke="#f8d330" stroke-width="7"/><path d="M-15 35L-55 30M15 35L55 55" stroke="#07336f" stroke-width="8"/><path d="M-10 92l-8 55M10 92l8 55" stroke="#17293d" stroke-width="10"/><path d="M-55 30v-45" stroke="#d93422" stroke-width="5"/></g></g>
<g font-family="sans-serif" font-size="22" font-weight="800" fill="#07336f" text-anchor="middle"><rect x="165" y="205" width="160" height="45" rx="6" fill="#fff" stroke="#0c58a5" stroke-width="3"/><text x="245" y="236">交通誘導員</text><rect x="875" y="205" width="160" height="45" rx="6" fill="#fff" stroke="#0c58a5" stroke-width="3"/><text x="955" y="236">交通誘導員</text></g>
<g fill="#ef6819" stroke="#fff" stroke-width="5"><path d="M160 535h48l-14-80h-20z"/><path d="M990 535h48l-14-80h-20z"/><path d="M300 535h48l-14-80h-20z"/><path d="M850 535h48l-14-80h-20z"/></g>
<rect x="250" y="650" width="700" height="95" rx="10" fill="#fff" stroke="#0c58a5" stroke-width="3"/><path d="M300 720h48l-14-60h-20z" fill="#ef6819" stroke="#fff" stroke-width="4"/><text x="370" y="708" fill="#07336f" font-family="sans-serif" font-size="23" font-weight="700">カラーコーン</text><path d="M650 685h95v-22l42 35-42 35v-22h-95z" fill="#0c58a5"/><text x="820" y="708" fill="#07336f" font-family="sans-serif" font-size="23" font-weight="700">車両の通行方向</text>
</svg>